<?xml version="1.0" encoding="utf-8"?>
<!-- Generator: Adobe Illustrator 24.0.1, SVG Export Plug-In . SVG Version: 6.00 Build 0)  -->
<svg version="1.1" id="Layer_1" xmlns="http://www.w3.org/2000/svg" xmlns:xlink="http://www.w3.org/1999/xlink" x="0px" y="0px"
	 viewBox="0 0 1033.58 797.03" style="enable-background:new 0 0 1033.58 797.03;" xml:space="preserve">
<style type="text/css">
	.st0{fill:#1E1C82;}
	.st1{fill:#93278F;}
	.st2{fill:#FBB03B;}
</style>
<g id="Layer_5">
	<path class="st0" d="M174.52,465.35c-9-17-13.81-34.02-8.81-54.02c-39.95-7.47-46.7-33.75-64.6-46.89
		c-14.51-10.66-57.33-24.71-48.21-53.57c6-19,50.81,13.47,57.81,23.47c7-12.11,22.89-30.99,28-37c-16-5-21.07-8.34-44.02-22.42
		c-15.75-9.66-25.02-21.18-15.98-32.58c13.47-17,42,18,71,40c17-18,30.4-32.09,32-34c-26-56-119-142-169-13
		C12.71,235.34-67.37,389.35,174.52,465.35z"/>
	<path class="st0" d="M186.71,65.34c-7,22,12,68,73,115c6.24,0,47-24,79-34c5-7,4.22-25.61-1-23c-32,16-54.6,31.56-74,27
		c-17-4-50-51-50-67c0-15.3,20.71-16.95,33-7c21,17,41,48,30,63c15,0,62-27,62-27s8.93-80.48-46.78-89.71
		C268.3,18.71,193.71,43.34,186.71,65.34z"/>
	<path class="st1" d="M556.71,155.34c-71.07-6.91-103.67-16.57-195,3c-140,30-241.95,185.53-241.95,185.53s10.71,46.47,56.95,46.47
		c24-40,142.55-144.25,191-162s68-30,180-18c135.55,14.52,119-125,212-86s67.79,64.6,93,73c14,0,49.03-23.76,42.95-37.59
		C860.71,80.34,716.71,2.34,543.71,2.34C543.71,2.34,721.23,163.35,556.71,155.34z"/>
	<path class="st1" d="M675.71,235.34c-60.4,28.77-153.53,14.03-248,33c-130.74,26.25-212.17,152.03-206.38,248
		c-30.86-29.11-48.47-96.54-38.62-111c47-69,125-124,152-143s90.33-57.77,202-43c121,16,138.09-48,158-67
		C694.71,152.34,801.48,175.43,675.71,235.34z"/>
	<path class="st1" d="M794.71,163.34c-16,18-66.79,57.46-86,66c-18,8-77.99,26.11-47.99,114.11c86-66,211.99-134.11,298.99-109.11
		c-19-40-33-46-53-60c-17,30-137,62-191,93c-7-48,95-56,113-67C836.71,185.34,806.33,150.26,794.71,163.34z"/>
	<path class="st1" d="M971.71,258.34c53,37,132,315-61,334c-5-47-34-97-55-114c35-11,41-17,41-43c0-48.09-35.31-38.28-25-85
		s37.18,20.72,63,25s44.87-76-2.07-87.5c-46.93-11.5-140.93,64.5-94.93,179.5c-92-31-138-11-171-112
		C682.71,323.34,912.71,184.34,971.71,258.34z"/>
	<path class="st2" d="M309.71,346.34c-70.3,56.91-90.93,165.57-52,206c26,27,94,33,110,22c-45-9-76.43-51.14-89-92c-4-13-9-49,15-55
		c28.13-7.03,39,72,35,100c17-13,28-19,41-24c-13-20-52-100-12-109c35.34-7.95,27,81,27,103c8-4,24-11,31-14c2-21,3.03-52.17,3-69
		c-0.03-16.8-12-112-31-115C368.71,299.34,330.71,329.34,309.71,346.34z"/>
	<path class="st2" d="M427.71,384.34c3,26,5,63-3,96c38.48-13.81,99.36-22.76,120.18-23c0.49-0.01,0.9-0.35,0.98-0.83
		c1.8-11.68-0.24-82.68-3.41-101.1c-31.75,1.93-76.41,21.19-74.75-2.07c1-14,45-22,73-21c-0.05-1.56-1-15-2-23
		s-77.07,20.69-77.23,0.35c-0.17-21.69,55.23-18.35,74.23-18.35c3.22,0-4.26-19.99-6-20c-18.92-0.14-111,5-123,20
		C412.71,310.34,425.03,361.14,427.71,384.34z"/>
	<path class="st2" d="M540.71,270.34c9,34,17,174,14,185c27.38-4.1,63-7,80-7c-3-13-8-43-9-62c-1.3-24.73,19-17,25,9
		c6.83,29.59,8.2,36.71,9,50c10.2-0.29,22-2,51-2c-48-26-87-140-60-186C650.71,257.34,591.18,271.33,540.71,270.34z"/>
	<path class="st0" d="M110.71,162.34c10-17,26-41,71-53c7,18,40.36,53.42,66.75,77.9c-28.21,16.92-41.71,31.7-59.59,52.8
		C177.48,199.56,129.71,168.34,110.71,162.34z"/>
	<path class="st0" d="M104.71,160.34c-13-4-37.67-5.47-37.67-5.47c13-17,37.93-66.21,107.67-84.53c0,0,2,23,5.13,33
		C158.71,103.34,109.71,138.34,104.71,160.34z"/>
	<path class="st0" d="M340.35,50.99c16.16-6.29,40.67-16.07,76.71,0.68c-6.59,17.97-15,54.76,0.91,77.88
		c-17.35,1.07-39.44,0.83-67.44,12.83C353.21,109.34,351.71,70.34,340.35,50.99z"/>
	<path class="st0" d="M337.39,45.14c-7.32-19.12-31.31-26.62-31.31-26.62c37.63-16.18,111.63-15.18,130.63-8.18
		c-8,10-14,22-17.53,36.19C405.15,35.11,353.02,32.71,337.39,45.14z"/>
	<path class="st1" d="M702.46,144.34c0,0,16.64-19.71,39.24-15c24,5,42.3,14,46,23c0,11-30.62,25.11-42.62,32.11
		C751.68,163.87,713.75,144.91,702.46,144.34z"/>
	<path class="st0" d="M504.71,0.34c36,0,122.55,94.43,95,129c-15.4,19.32-71.43,4.61-73.14,4.15c9-18,27.66-44.44,13.14-51.15
		c-9.52-4.39-21-3-31-3c-7-3-7-14-2-20c15,3,20,7,31,1c14.89-7.48-5.81-33.15-31-36c-35.92-4.07-12,87,8,107c-30-6-71-2-83.68-2.03
		C411.14,129.27,410.71-7.66,504.71,0.34z"/>
	<path class="st2" d="M333.71,541.34c94-75,428.25-108.74,497-58c19.44,14.34,33.55,23.76,48.55,57.76
		c-40.9-9.98-213.71-23.68-292.98,9c-0.35,0.15-0.59,0.49-0.62,0.87c-7.59,108.59,87.03,166.47,80.21,218.78
		c-2.4,18.43-32.08,46.22-71.16,8.59c-38-43-117-143-135.97-207.48C458.73,570.86,380.71,585.34,333.71,541.34z"/>
	<path class="st2" d="M653.71,690.34c29.09,22.84,143.75,53.34,230-13c26-20,31.06-75.54,27-85c0,44-50,43-56,42s-12-5-9-11
		c5.4-10.81,58-10,54-31c-0.51-1.78-0.73-7.07-3.54-12.2c-0.25-0.46-0.81-0.63-1.29-0.41c-18.9,8.79-43.5,14.76-53.17,12.61
		c-9-2-7-16,5-20c11.88-3.96,32.29-5.85,43.64-6.88c0.67-0.06,1.08-0.76,0.82-1.38c-3.35-8.01-2.41-10.54-5.46-10.74
		c-18.83-1.24-192.07-25.87-287.23,8.72c-0.45,0.16-0.72,0.62-0.65,1.09C599.22,572.34,612.48,657.97,653.71,690.34z"/>
</g>
</svg>
