<?xml version="1.0" encoding="utf-8"?>
<!-- Generator: Adobe Illustrator 24.0.1, SVG Export Plug-In . SVG Version: 6.00 Build 0)  -->
<svg version="1.1" id="Layer_1" xmlns="http://www.w3.org/2000/svg" xmlns:xlink="http://www.w3.org/1999/xlink" x="0px" y="0px"
	 viewBox="0 0 1072.15 843.13" style="enable-background:new 0 0 1072.15 843.13;" xml:space="preserve">
<style type="text/css">
	.st0{fill:#FCFCFC;}
	.st1{fill:#1E1C82;}
	.st2{fill:#93278F;}
	.st3{fill:#FBB03B;}
</style>
<g id="Layer_2_1_">
	<path class="st0" d="M200.46,501.12c0,0-253.86-40.2-190.22-240.3S366.83-17.85,497.11,3.36s396.7-23.14,539.28,316.75
		c67.99,162.1,37.29,266.88-77.14,320.96c-26.8,133.71-212.76,133.35-245.57,115.71c9.28,113.14-114.43,156.86-259.71-135
		C268.95,651.42,225.23,577.89,200.46,501.12z"/>
</g>
<g id="Layer_5">
	<path class="st1" d="M195.01,486.13c-9-17-13.81-34.02-8.81-54.02c-39.95-7.47-46.7-33.75-64.6-46.89
		c-14.51-10.66-57.33-24.71-48.21-53.57c6-19,50.81,13.47,57.81,23.47c7-12.11,22.89-30.99,28-37c-16-5-21.07-8.34-44.02-22.42
		c-15.75-9.66-25.02-21.18-15.98-32.58c13.47-17,42,18,71,40c17-18,30.4-32.09,32-34c-26-56-119-142-169-13
		C33.2,256.12-46.88,410.13,195.01,486.13z"/>
	<path class="st1" d="M207.2,86.12c-7,22,12,68,73,115c6.24,0,47-24,79-34c5-7,4.22-25.61-1-23c-32,16-54.6,31.56-74,27
		c-17-4-50-51-50-67c0-15.3,20.71-16.95,33-7c21,17,41,48,30,63c15,0,62-27,62-27s8.93-80.48-46.78-89.71
		C288.79,39.49,214.2,64.12,207.2,86.12z"/>
	<path class="st2" d="M577.2,176.12c-71.07-6.91-103.67-16.57-195,3c-140,30-241.95,185.53-241.95,185.53s10.71,46.47,56.95,46.47
		c24-40,142.55-144.25,191-162s68-30,180-18c135.55,14.52,119-125,212-86s67.79,64.6,93,73c14,0,49.03-23.76,42.95-37.59
		C881.2,101.12,737.2,23.12,564.2,23.12C564.2,23.12,741.72,184.13,577.2,176.12z"/>
	<path class="st2" d="M696.2,256.12c-60.4,28.77-153.53,14.03-248,33c-130.74,26.25-212.17,152.03-206.38,248
		c-30.86-29.11-48.47-96.54-38.62-111c47-69,125-124,152-143s90.33-57.77,202-43c121,16,138.09-48,158-67
		C715.2,173.12,821.97,196.21,696.2,256.12z"/>
	<path class="st2" d="M815.2,184.12c-16,18-66.79,57.46-86,66c-18,8-77.99,26.11-47.99,114.11c86-66,211.99-134.11,298.99-109.11
		c-19-40-33-46-53-60c-17,30-137,62-191,93c-7-48,95-56,113-67C857.2,206.12,826.82,171.04,815.2,184.12z"/>
	<path class="st2" d="M992.2,279.12c53,37,132,315-61,334c-5-47-34-97-55-114c35-11,41-17,41-43c0-48.09-35.31-38.28-25-85
		s37.18,20.72,63,25s44.87-76-2.07-87.5c-46.93-11.5-140.93,64.5-94.93,179.5c-92-31-138-11-171-112
		C703.2,344.12,933.2,205.12,992.2,279.12z"/>
	<path class="st3" d="M330.2,367.12c-70.3,56.91-90.93,165.57-52,206c26,27,94,33,110,22c-45-9-76.43-51.14-89-92c-4-13-9-49,15-55
		c28.13-7.03,39,72,35,100c17-13,28-19,41-24c-13-20-52-100-12-109c35.34-7.95,27,81,27,103c8-4,24-11,31-14c2-21,3.03-52.17,3-69
		c-0.03-16.8-12-112-31-115C389.2,320.12,351.2,350.12,330.2,367.12z"/>
	<path class="st3" d="M448.2,405.12c3,26,5,63-3,96c38.48-13.81,99.36-22.76,120.18-23c0.49-0.01,0.9-0.35,0.98-0.83
		c1.8-11.68-0.24-82.68-3.41-101.1c-31.75,1.93-76.41,21.19-74.75-2.07c1-14,45-22,73-21c-0.05-1.56-1-15-2-23
		s-77.07,20.69-77.23,0.35c-0.17-21.69,55.23-18.35,74.23-18.35c3.22,0-4.26-19.99-6-20c-18.92-0.14-111,5-123,20
		C433.2,331.12,445.52,381.92,448.2,405.12z"/>
	<path class="st3" d="M561.2,291.12c9,34,17,174,14,185c27.38-4.1,63-7,80-7c-3-13-8-43-9-62c-1.3-24.73,19-17,25,9
		c6.83,29.59,8.2,36.71,9,50c10.2-0.29,22-2,51-2c-48-26-87-140-60-186C671.2,278.12,611.67,292.11,561.2,291.12z"/>
	<path class="st1" d="M131.2,183.12c10-17,26-41,71-53c7,18,40.36,53.42,66.75,77.9c-28.21,16.92-41.71,31.7-59.59,52.8
		C197.97,220.34,150.2,189.12,131.2,183.12z"/>
	<path class="st1" d="M125.2,181.12c-13-4-37.67-5.47-37.67-5.47c13-17,37.93-66.21,107.67-84.53c0,0,2,23,5.13,33
		C179.2,124.12,130.2,159.12,125.2,181.12z"/>
	<path class="st1" d="M360.84,71.77c16.16-6.29,40.67-16.07,76.71,0.68c-6.59,17.97-15,54.76,0.91,77.88
		c-17.35,1.07-39.44,0.83-67.44,12.83C373.7,130.12,372.2,91.12,360.84,71.77z"/>
	<path class="st1" d="M357.88,65.92c-7.32-19.12-31.31-26.62-31.31-26.62C364.2,23.12,438.2,24.12,457.2,31.12
		c-8,10-14,22-17.53,36.19C425.64,55.89,373.51,53.49,357.88,65.92z"/>
	<path class="st2" d="M722.95,165.12c0,0,16.64-19.71,39.24-15c24,5,42.3,14,46,23c0,11-30.62,25.11-42.62,32.11
		C772.17,184.65,734.24,165.69,722.95,165.12z"/>
	<path class="st1" d="M525.2,21.12c36,0,122.55,94.43,95,129c-15.4,19.32-71.43,4.61-73.14,4.15c9-18,27.66-44.44,13.14-51.15
		c-9.52-4.39-21-3-31-3c-7-3-7-14-2-20c15,3,20,7,31,1c14.89-7.48-5.81-33.15-31-36c-35.92-4.07-12,87,8,107c-30-6-71-2-83.68-2.03
		C431.63,150.05,431.2,13.12,525.2,21.12z"/>
	<path class="st3" d="M354.2,562.12c94-75,428.25-108.74,497-58c19.44,14.34,33.55,23.76,48.55,57.76
		c-40.9-9.98-213.71-23.68-292.98,9c-0.35,0.15-0.59,0.49-0.62,0.87c-7.59,108.59,87.03,166.47,80.21,218.78
		c-2.4,18.43-32.08,46.22-71.16,8.59c-38-43-117-143-135.97-207.48C479.22,591.64,401.2,606.12,354.2,562.12z"/>
	<path class="st3" d="M674.2,711.12c29.09,22.84,143.75,53.34,230-13c26-20,31.06-75.54,27-85c0,44-50,43-56,42s-12-5-9-11
		c5.4-10.81,58-10,54-31c-0.51-1.78-0.73-7.07-3.54-12.2c-0.25-0.46-0.81-0.63-1.29-0.41c-18.9,8.79-43.5,14.76-53.17,12.61
		c-9-2-7-16,5-20c11.88-3.96,32.29-5.85,43.64-6.88c0.67-0.06,1.08-0.76,0.82-1.38c-3.35-8.01-2.41-10.54-5.46-10.74
		c-18.83-1.24-192.07-25.87-287.23,8.72c-0.45,0.16-0.72,0.62-0.65,1.09C619.71,593.12,632.97,678.75,674.2,711.12z"/>
</g>
</svg>
