<svg xmlns="http://www.w3.org/2000/svg" viewBox="0 0 432 549"><g id="bc897e63-5265-4fe0-a621-fe33991f0514" data-name="Layer 1"><polygon points="0 27 0 387 216 549 432 387 432 0 369 27 72 27 0 9 0 27" style="fill:#ff931e"/><g id="f4b1bc1f-4d14-4ee4-aa87-8eea35473e88" data-name="Branco"><polygon points="18 45 18 378 216 495 414 378 414 45 369 54 63 54 18 45" style="fill:#fff"/></g><g id="b2468b25-9493-4c53-8b88-7aeb57b13f5b" data-name="Layer 9"><path d="M828,657.64a74.08,74.08,0,0,0-18,19.29,78.32,78.32,0,0,0-9,19.28L936,783l126-86.79a100.33,100.33,0,0,0-9-19.28A96,96,0,0,0,1026,648Z" transform="translate(-720 -261)" style="fill:#ff931e"/><path d="M892.12,513S882,540,882,558s81,18,81,18l-30.38-63Z" transform="translate(-720 -261)" style="fill:#ff931e"/></g></g><g id="b86b382b-c929-4693-b570-be5912f12bbd" data-name="gato"><g id="e373415e-7605-46e4-9b31-e3c953cae479" data-name="Layer 3"><path d="M817.52,523.81a8.3,8.3,0,0,0,0-5.35c-.93-3.39-6.86-14.87-7.23-16.35s-.65-4.15,0-4.26c1.12-.19,11.93,11.24,13.8,13,.7.64.82,4.14-.46,7.21S819.65,523.73,817.52,523.81Z" transform="translate(-720 -261)" style="fill:#ff9504"/></g><path d="M944,610.26s-27.41-28.52-36.3-33-8.89-45.93-43-57.41c-7-3-17-8.15-17-8.15s-11-20-16.77-19.82-4.34,22.78-5.08,25.74c-.6,2.42-3,5.93-7.78,8.15s-23.33,9.26-27,20-4.08,22.6-10.38,27c-5.18,3-6.29,12.59,0,19.41,7,5.41,4.82,7.26,6.67,9.48s7.41,14.07,30,3.7c7.78-4.44,1.85,18.15,1.85,18.15s-5.92,24.45.37,31.48A23.13,23.13,0,0,1,825.11,671H944Z" transform="translate(-720 -261)" style="fill:#ff9504"/></g><g id="b8435426-a202-48f1-a0ba-691792668c26" data-name="Layer 4"><path d="M1036.4,492.79s2.61-21.34-2.18-21.77-7.84,7.4-9.58,11.32-14.81,13.06-20,16.11c-38.76,6.53-74.71,59.22-74.71,59.22l-1.5,113.26s41.14-3.36,83.18.84c32.42,3.23,22.2-18.73,23.95-26.57s-5.23-25.69,0-30.48,31.79,2.18,39.19,4.36,15.24-1.31,15.24-1.31c1.31-1.31,1.74-.87,5.23-1.74s32.65-15.24,15.24-25.26-35.71-27.87-37-38.76-5.66-17.41-12.19-24-7.84-13.93-13.06-20.46S1039,499.76,1036.4,492.79Z" transform="translate(-720 -261)" style="fill:#ff9504"/><path d="M1049,505.85c.48.85,2-11.21,2.84-13.39s1.21-14.41.87-16.55c-.23-1.41-1.31-1.74-3.49-1.3s-5.45,9-6.53,10.88-5,3.59-5.22,4.79C1036.83,494.1,1047.28,502.81,1049,505.85Z" transform="translate(-720 -261)" style="fill:#ff9504"/></g><g id="bea45b85-e336-4352-abfc-dc794d9ac6ef" data-name="Layer 5"><path d="M933.78,622.5c-9.62,0-15.7-.9-18.07-2.67-5.08-3.82-6.4-14.83-6.62-17.13-3.31-3-6.69-7-8.91-17.74-2.42-11.73,2.52-15.07,4.38-15.89.61-1.26.42-8-.11-13.78-.08-.24-.39-1-.72-1.71-2.18-5-8-18.21-8.52-30.4-.6-14.11-3.41-20.73-4.33-22.91-.09-.19-.16-.36-.21-.49a8.92,8.92,0,0,1-.15-3.73,11.3,11.3,0,0,0-.19-4.53c-.64-1.7-1.1-6.95-1.55-12-.27-3.07-.53-6-.77-7.43-2.22-4.18-2-6.24-1.84-7.48a3.87,3.87,0,0,0,0-.51l-.1-.07-.15-.1-.11-.15c-2.91-4-3.41-9.87-3.62-12.39,0-.23-.05-.48-.06-.68a2.67,2.67,0,0,1-1.16-1.93,2.64,2.64,0,0,1,.56-2,10.81,10.81,0,0,1-.52-4.78c0-5.78,1.53-8,2.55-9.48.52-.75.75-1.11.74-1.62-.15-5.66,6.43-17.79,6.71-18.3l0-.06,0-.05c.32-.45,7.75-11.14,1-21.95-7.52-12-8.05-18.15-7.73-34.16.34-16.8,10.55-23.91,11-24.21l.32-.21.39.05c1.17.17,3.16,1,3.16,3a40.34,40.34,0,0,0,1.22,6.08c2.86,3.08,10.53,15.5,11.25,17.66.14.42.27,1.08.46,2,.66,3.34,2,10.28,5.57,10.51H918c2.29,0,5-1.48,8-3.05,3.24-1.74,6.58-3.55,9.81-3.55s6.19,1.59,9,3.12c2.57,1.4,5.23,2.85,8.24,3.15l.56,0c4.69,0,6.66-6.65,8-11.05.16-.56.32-1.08.47-1.56,1.56-5,7-13.13,10-15.84,1.15-1,1.47-2.38,1.84-3.94.45-1.9.95-4.06,3.18-5.68l.43-.31.5.18c6.83,2.52,10.87,15.93,11.2,27.27s-2.33,20.47-5.11,24.64c-3.14,4.71-8.44,15.35-6.18,22.09,8,13.41,8.65,21.47,8.67,23.64.78.72,1.89,2.44,3.23,6.45a17.19,17.19,0,0,1,.13,9.9c0,.2-.1.43-.14.62a2.32,2.32,0,0,1,.54,1.4,2.49,2.49,0,0,1-1,2.48l-.08,0c0,.57.09,1.47.16,2.29.24,3.09-1.3,6.11-2.53,8.53a16.53,16.53,0,0,0-1.31,3,13.66,13.66,0,0,1-1.35,3.34,25.47,25.47,0,0,0-1.16,2.54c-.75,2-1.15,8.42-1.25,10.83a60.48,60.48,0,0,1-1.69,18.08c-1.53,5.51-4.22,13.08-4.59,14.12-.18,2-2.17,22.52-6.67,31.85-3.86,8-4.67,19-4.82,21.93,6.4,2.55,4.94,13.54,4.75,14.78.23,9.44-5.51,16-8.28,19.11a18.11,18.11,0,0,0-1.28,1.54c-.44,13.31-8.9,17.72-11.5,18.76l-.14.06h-.15C947.3,622,940.82,622.5,933.78,622.5Z" transform="translate(-720 -261)" style="fill:#ff931e"/><path d="M895.88,333s2.31.33,2.31,2a45.31,45.31,0,0,0,1.32,6.59c2.63,2.63,10.54,15.49,11.2,17.46s1.65,12.85,6.92,13.18l.37,0c5.23,0,12-6.61,17.76-6.61s10.54,5.61,17.13,6.26a5.07,5.07,0,0,0,.66,0c6.07,0,8-8.76,9.39-13.31,1.49-4.71,6.76-12.76,9.72-15.39s1.32-6.92,5-9.56c6.26,2.31,10.21,15.16,10.54,26.36s-2.31,20.1-4.94,24.06-8.9,15.48-6.26,23.06c9.22,15.49,8.56,23.73,8.56,23.73s1.32.33,3.3,6.26-.66,10.55,0,10.74.66,2.11,0,2.44a.54.54,0,0,1-.26.06h-.2c-.24,0-.24.27,0,3.25.33,4.28-3.18,8.62-3.81,11.2-.55,2.25-1.5,3.2-2.48,5.77s-1.31,11.2-1.31,11.2a59.87,59.87,0,0,1-1.65,17.8c-1.65,5.93-4.61,14.16-4.61,14.16s-2,22.08-6.59,31.64-4.95,23.07-4.95,23.07c6.76,1.81,4.78,14,4.78,14,.33,11.53-8.57,18.45-9.56,20.43-.33,13.51-9.22,17.47-10.87,18.13,0,0-6.43.49-13.51.49S919,621,916.31,619c-5.27-4-6.26-16.81-6.26-16.81-3-2.63-6.59-6.26-8.89-17.46s2.3-14.17,4-14.83.33-14.83.33-14.83c-.33-1.32-8.57-17.46-9.23-32-.66-15.49-4-22.08-4.61-23.73s.66-5.6-.33-8.24-1.65-15.81-2.31-19.44c-3.52-6.56-.68-7.51-2.3-8.57C883,458.22,883.36,450,883,450a1.53,1.53,0,0,1-1-1.29,1.42,1.42,0,0,1,1-1.67c-1.32-.66-1-4.95-1-4.95,0-8.56,3.37-8.75,3.3-11.2-.15-5.45,6.59-17.8,6.59-17.8s8.24-11.53,1-23.06-7.91-17.14-7.58-33.61S895.88,333,895.88,333m-.48-2.09-.64.43c-.45.31-11.07,7.7-11.42,25-.33,16.23.21,22.51,7.88,34.71,6.43,10.23-.62,20.42-.92,20.85l-.07.09-.06.11c-.71,1.31-7,13-6.83,18.8,0,.19-.11.39-.56,1-1.08,1.57-2.72,3.93-2.74,10.05a12.3,12.3,0,0,0,.4,4.66,3.85,3.85,0,0,0-.43,2.15,3.7,3.7,0,0,0,1.2,2.39l0,.24c.22,2.61.74,8.71,3.81,12.91l.13.17c-.14,1.26-.37,3.56,1.88,7.86.23,1.47.48,4.26.74,7.2.55,6.32,1,10.59,1.61,12.29a10.74,10.74,0,0,1,.13,4.09,9.35,9.35,0,0,0,.21,4.19l.22.51c.9,2.14,3.66,8.63,4.26,22.56.56,12.38,6.39,25.73,8.59,30.76.27.61.54,1.25.66,1.54.46,5.06.65,11.05.26,12.85-2.3,1.2-6.93,5.14-4.53,16.79,2.21,10.76,5.59,14.94,8.93,18,.33,3.18,1.78,13.54,7,17.45.95.71,3.83,2.87,18.67,2.87,7.08,0,13.6-.5,13.66-.5l.31,0,.28-.12c2.72-1.09,11.54-5.67,12.11-19.35.26-.32.69-.8,1.05-1.22,2.84-3.23,8.74-9.93,8.53-19.71.24-1.64,1.5-12.26-4.71-15.47.23-3.62,1.15-13.55,4.68-20.86,4.5-9.32,6.51-29.43,6.75-32.07.51-1.43,3.07-8.63,4.58-14.07a62.09,62.09,0,0,0,1.72-18.37c.13-3.24.57-8.83,1.18-10.45a23.26,23.26,0,0,1,1.12-2.44,15,15,0,0,0,1.43-3.57,16.55,16.55,0,0,1,1.23-2.77c1.29-2.53,2.89-5.68,2.63-9.06,0-.53-.09-1.16-.12-1.68a3.76,3.76,0,0,0,1.08-3.13,3.53,3.53,0,0,0-.47-1.53l0-.17a18.39,18.39,0,0,0-.15-10.44c-1.07-3.2-2.13-5.37-3.2-6.56-.11-2.79-1.17-10.88-8.73-23.63-1.91-5.93,2.58-15.85,6.09-21.12,2.66-4,5.64-13,5.28-25.23-.35-12-4.54-25.48-11.85-28.18l-1-.37-.86.63c-2.53,1.84-3.1,4.29-3.57,6.26-.37,1.61-.65,2.64-1.53,3.42-3.13,2.79-8.69,11.19-10.3,16.29-.15.48-.31,1-.47,1.57-1.22,4.12-3.07,10.34-7,10.34l-.46,0c-2.81-.28-5.26-1.61-7.86-3-2.91-1.59-5.93-3.24-9.47-3.24s-6.94,1.87-10.28,3.67c-2.67,1.44-5.44,2.94-7.48,2.94h-.24c-2.77-.18-4.15-7.1-4.66-9.7a20.09,20.09,0,0,0-.49-2.12c-.74-2.22-8.16-14.3-11.29-17.83a36.86,36.86,0,0,1-1.13-5.59c0-2.33-2.09-3.68-4-4l-.77-.11Z" transform="translate(-720 -261)" style="fill:#fff"/><g id="f557044c-c60b-4ac1-97b3-c703ca7209a7" data-name="Layer 6"><path d="M980,453.43s-4.94,7.25-5.27,9.56,6.59,1.32,7.91,1,5.93-7.91,4.61-13.18C983.58,450.8,981.93,452.11,980,453.43Z" transform="translate(-720 -261)" style="fill:#fcfcfc"/><path d="M891.88,453.43s5,7.25,5.28,9.56-6.59,1.32-7.91,1-5.93-7.91-4.62-13.18C888.26,450.8,889.91,452.11,891.88,453.43Z" transform="translate(-720 -261)" style="fill:#fcfcfc"/></g></g></svg>