<svg xmlns="http://www.w3.org/2000/svg" viewBox="0 0 202.67 161.33"><defs><style>.cls-1{fill:#c31c1c;stroke:#c31d1d;stroke-miterlimit:10;}</style></defs><title>Asset 11</title><g id="Layer_2" data-name="Layer 2"><g id="Layer_2-2" data-name="Layer 2"><path class="cls-1" d="M75.93,33.86,91.05,18.74S58.41-19.42,16.89,14.66C3.69,25.49-.78,46.22.81,61.22c1.68,15.84,18.48,32.64,28.8,43C47.85,122.42,54.33,128.66,72.09,129c21.84.44,36-17.41,53.28-34.68C141.52,78.21,157,63.27,160.29,58.82c6.36-8.64-5.4-23.76-16.92-13.68-8.75,7.65-19.44,19.92-31.68,31.68-13.12,12.6-23,27.6-39.36,27.6-13,0-19.88-10.25-27.84-17.52C39,81.86,29.13,72.74,26,67.46s-8.43-25.57,6.84-37.8C47.37,18,65.25,24,75.93,33.86Z"/><path class="cls-1" d="M73.05,54.74C78.74,54.86,90.8,39,105.69,24,124.6,5,136.89,0,152,.86c33.12,1.8,50.4,25.68,50.16,55.32-.15,18.36-9.48,28.8-40.8,60.48s-40.68,43.8-56.88,44.16-27.12-8.28-34.08-16.56c29.76,5.16,37.68-6.6,37.68-6.6s52.34-49.29,63.72-63c10-12,14.58-33.79-2.52-45.36-23.76-16.08-37.44,1-53.52,17.28C97.41,65.21,85.77,79.22,74,79.22c-11.19,0-16.56-6.48-21.6-11.28S35.2,53.35,44.73,44.78C57.93,32.9,63.92,54.53,73.05,54.74Z"/></g></g></svg>