<svg id="Layer_1" data-name="Layer 1" xmlns="http://www.w3.org/2000/svg" viewBox="0 0 309.94 421.46"><defs><style>.cls-1{fill:none;stroke:#000;stroke-linecap:round;stroke-linejoin:round;stroke-width:0.5px;}.cls-2{fill:#fff;}.cls-3{fill:#d40011;}</style></defs><title>vigiapb</title><circle cx="156.21" cy="151.08" r="132.75"/><circle class="cls-1" cx="156.21" cy="151.08" r="132.75"/><path d="M157.6,12.93a142.32,142.32,0,0,1,100.63,243A142.32,142.32,0,0,1,57,54.62,141.4,141.4,0,0,1,157.6,12.93m0-1A143.32,143.32,0,1,0,300.91,155.25,143.32,143.32,0,0,0,157.6,11.93Z" transform="translate(-1.6 -5.29)"/><path class="cls-2" d="M219.44,153.89a39.31,39.31,0,1,1,27.79-11.51A39.07,39.07,0,0,1,219.44,153.89Z" transform="translate(-1.6 -5.29)"/><path d="M219.44,75.77A38.8,38.8,0,1,1,192,87.14a38.56,38.56,0,0,1,27.45-11.37m0-1a39.81,39.81,0,1,0,28.15,11.66,39.69,39.69,0,0,0-28.15-11.66Z" transform="translate(-1.6 -5.29)"/><path class="cls-2" d="M151.6,183.06a14.29,14.29,0,0,1-3.18-.36,14.2,14.2,0,0,1,3.15-28,14.32,14.32,0,0,1,3.19.36,14.2,14.2,0,0,1-3.16,28Z" transform="translate(-1.6 -5.29)"/><path d="M151.57,155.16h0a13.82,13.82,0,0,1,3.07.34,13.7,13.7,0,0,1-3,27.06,13.83,13.83,0,0,1-3.07-.35,13.7,13.7,0,0,1,3-27.05m0-1a14.7,14.7,0,1,0,3.3.37,15,15,0,0,0-3.3-.37Z" transform="translate(-1.6 -5.29)"/><path class="cls-3" d="M273.28,12.94h38.27v237q0,62.6-10.94,91.56-15,41-52.2,63.14T159,426.75q-38.26,0-68.73-10.83T40.69,386.86Q21.55,368.64,5.43,333.55H47q17,29.52,43.79,43.73t66.49,14.21q39.13,0,66.09-14.57t38.45-36.64q11.49-22.06,11.49-71.24v-15.3a144.88,144.88,0,0,1-52.8,41.95A156.77,156.77,0,0,1,77.11,290Q41,269.6,21.3,235.15T1.6,159.44A153.08,153.08,0,0,1,78.89,26.06Q115.15,5.3,155.36,5.29a142.64,142.64,0,0,1,62.25,13.8q28.86,13.82,55.67,45.51ZM160.4,42.19A121,121,0,0,0,100,57.9a113.84,113.84,0,0,0-43.73,43.46,118.92,118.92,0,0,0-15.86,60q0,48.91,32.8,80.9t85,32q52.75,0,84.87-31.71t32.11-83.36q0-33.61-14.75-60A107.48,107.48,0,0,0,218.62,57.5,116.28,116.28,0,0,0,160.4,42.19Z" transform="translate(-1.6 -5.29)"/></svg>