<svg xmlns="http://www.w3.org/2000/svg" viewBox="0 0 850.41 636.83"><defs><style>.cls-1{fill:#fff;stroke:#000;stroke-miterlimit:10;}</style></defs><g id="Layer_2" data-name="Layer 2"><g id="Layer_4" data-name="Layer 4"><path class="cls-1" d="M10.09,188.24c-21.16,52.93-4.45,99.6,22.41,130.86,20.89,24.32,94.82,52.07,115,53.42C140.07,359,131.84,344.6,136,328.65c-32.48-10.5-49.36-23.14-64.16-33.51-16.57-11.6-40.41-31.22-32.91-54.25,4.94-15.15,46.07,18.35,51.83,26.33,6.58-8.78,18.82-24.72,23-29.52-13.16-4-17.33-6.65-36.21-17.88-13-7.71-20.58-16.9-13.15-26,11.09-13.57,34.55,14.35,58.41,31.91,14-14.36,25-25.61,26.33-27.13C127.73,153.94,51.22,85.33,10.09,188.24Z"/><path class="cls-1" d="M153.23,52.62c-5.76,17.55,9.87,54.25,60.05,91.74,5.14,0,38.67-19.14,65-27.12,4.11-5.58,3.47-20.43-.82-18.35-26.33,12.77-44.92,25.18-60.88,21.54-14-3.19-41.13-40.68-41.13-53.45,0-12.2,17-13.52,27.15-5.58,17.27,13.56,33.73,38.29,24.68,50.26,12.34,0,51-21.54,51-21.54s2.54-92.27-62.9-67.28C199.3,25.5,159,35.07,153.23,52.62Z"/><path class="cls-1" d="M446.91,2.36c1.65,6.39,16.25,12.38,34.56,26.33C493,37.47,502,44.65,507,56.61s13.16,75-49.36,67.81-85.28-13.22-160.42,2.39C182,150.75,96.47,274.4,96.47,274.4s4.93,30.31,48.53,37.49C164.75,280,262.27,196.81,302.13,182.66s55.94-23.94,148.07-14.36c111.52,11.58,97.9-99.72,174.41-68.61s55.77,51.53,76.5,58.24c11.52,0,40.34-19,35.33-30C707.69,64.59,589.23,2.36,446.91,2.36Z"/><path class="cls-1" d="M555.5,188.24c-38.87,16.2-95.62,7.07-204,26.33C243.72,233.71,174.62,341.41,178.73,412.41c-18.92-30.32-36.89-77-28.79-88.55,38.66-55.05,102.83-98.92,125-114.08s74.31-46.08,166.18-34.3c99.54,12.76,113.6-38.3,130-53.45C571.13,122,660.8,144.36,555.5,188.24Z"/><path class="cls-1" d="M653.4,130.8c-13.16,14.36-54.94,45.84-70.75,52.65-14.81,6.39-65.81,21.54-41.13,91.75,70.75-52.66,176.05-107.7,247.62-87.76-15.63-31.91-27.15-36.69-43.6-47.86-14,23.93-112.71,49.46-157.13,74.19-5.76-38.29,78.15-44.68,93-53.45C688,148.35,663,120.37,653.4,130.8Z"/><path class="cls-1" d="M799,206.59C842.61,236.11,907.6,457.88,748.83,473c-4.12-37.5-28-77.38-45.25-91,28.79-8.77,33.73-13.56,33.73-34.3,0-38.37-29-30.54-20.57-67.81s30.59,16.53,51.83,19.95,36.91-60.63-1.7-69.81-115.94,51.46-78.1,143.2C613.09,348.59,575.25,364.54,548.1,284,561.26,258.44,750.47,147.56,799,206.59Z"/><path class="cls-1" d="M254.41,276.79c-57.83,45.4-74.8,132.09-42.77,164.34C233,462.67,289,467.45,302.13,458.68c-37-7.18-62.87-40.79-73.22-73.39-3.29-10.38-7.4-39.09,12.34-43.88,23.15-5.61,32.09,57.44,28.79,79.77,14-10.37,23-15.15,33.73-19.14-10.69-16-42.77-79.78-9.87-87,29.07-6.34,22.21,64.62,22.21,82.17,6.58-3.19,19.75-8.77,25.5-11.17,1.65-16.75,2.5-41.61,2.47-55s-9.87-89.35-25.5-91.74C303,239.3,271.69,263.23,254.41,276.79Z"/><path class="cls-1" d="M351.49,307.11c2.46,20.74,4.11,50.25-2.47,76.58,31.66-11,81.74-18.16,98.87-18.34a.81.81,0,0,0,.8-.67c1.48-9.31-.2-66-2.81-80.65-26.11,1.54-62.85,16.9-61.49-1.65.83-11.17,37-17.55,60.06-16.76-.05-1.24-.83-12-1.65-18.35s-63.4,16.51-63.53.28c-.14-17.3,45.43-14.63,61.06-14.63,2.65,0-3.5-15.95-4.93-16-15.57-.11-91.32,4-101.19,16C339.15,248.07,349.29,288.61,351.49,307.11Z"/><path class="cls-1" d="M584.3,354.17c-39.49-20.74-71.57-111.68-49.36-148.38-17.28.8-34.55,1.6-51.83,4.79-18.23,3.37-23.86,4-38.66,5.58,7.4,27.13,14,138.81,11.51,147.59,22.52-3.28,51.83-5.59,65.81-5.59-2.46-10.37-6.58-34.3-7.4-49.46C513.3,289,530,295.14,534.94,315.88c5.61,23.6,6.74,29.29,7.4,39.89C550.73,355.54,560.44,354.17,584.3,354.17Z"/><path class="cls-1" d="M90.71,130c8.22-13.57,21.39-32.71,58.41-42.29,5.75,14.36,35.87,41.1,57.58,60.63-27.15,15.16-37.84,29.52-53.47,45.48C143.86,161.53,106.34,134.79,90.71,130Z"/><path class="cls-1" d="M85.77,128.41c-10.69-3.19-39.49-.8-39.49-.8,10.7-13.56,55.94-65.41,97.08-71,0,0,1.64,18.35,4.21,26.32C130.19,82.94,89.88,110.86,85.77,128.41Z"/><path class="cls-1" d="M279.63,41.18c13.29-5,33.46-12.82,63.1.54-7.57,12.27-4.41,38.82,3.82,62-14.27.85-39.49,2.39-62.52,12C296.45,88.52,289,56.61,279.63,41.18Z"/><path class="cls-1" d="M277.19,36.52c-4.8-8.35-25.76-21.24-25.76-21.24C282.38,2.36,343.26,3.16,358.89,8.75a73.31,73.31,0,0,0-14.42,28.87C332.93,28.51,290.05,26.6,277.19,36.52Z"/><path class="cls-1" d="M577.52,115.65s13.69-15.73,32.28-12c19.74,4,34.8,11.17,37.84,18.35,0,8.77-24.68,19.94-34.55,25.53C614.73,131.6,586.37,114.85,577.52,115.65Z"/><path class="cls-1" d="M414.83.77C444.45.77,515.65,76.1,493,103.68c-12.67,15.41-58.62,4-60,3.61,7.4-14.36,22.61-35.76,10.66-41.11-7.83-3.5-17.27-2.39-25.5-2.39-5.76-2.39-5.76-11.17-1.64-15.95,12.34,2.39,16.45,5.58,25.5.79,12.25-6-4.78-26.44-25.5-28.71-29.56-3.25-9.88,69.4,6.58,85.35-24.68-4.78-58.41-1.59-68.84-1.61C337.86,103.63,337.5-5.61,414.83.77Z"/><path class="cls-1" d="M274.16,432.35C351.49,372.52,625.43,347,683,386.08c21.41,14.54,28.8,21.54,41.14,48.67-33.65-8-177-21.48-242.21,4.59a.82.82,0,0,0-.51.69c-6.25,86.64,71.59,132.81,66,174.54-2,14.7-26.39,36.87-58.54,6.85C457.61,587.12,392.62,507.34,377,455.9,377,455.9,312.82,467.45,274.16,432.35Z"/><path class="cls-1" d="M537.41,551.22c23.93,18.22,118.25,42.55,189.2-10.37,21.39-16,25.56-60.26,22.22-67.81,0,35.1-41.14,34.3-46.07,33.5s-9.87-4-7.41-8.77c4.45-8.62,47.72-8,44.43-24.73-.42-1.42-.61-5.64-2.92-9.74a.82.82,0,0,0-1.06-.32C720.26,470,700,474.75,692.06,473c-7.4-1.6-5.76-12.77,4.12-16s26.56-4.66,35.9-5.48a.79.79,0,0,0,.67-1.1c-2.76-6.39-2-8.41-4.49-8.57-15.49-1-158-20.64-236.29,6.95a.79.79,0,0,0-.53.87C492.58,457.08,503.49,525.4,537.41,551.22Z"/></g></g></svg>